<?xml version="1.0" encoding="UTF-8" standalone="no"?>
<svg
    xmlns:svg="http://www.w3.org/2000/svg"
    xmlns="http://www.w3.org/2000/svg"
    width="800"
    height="240"

>
     <style>
          path {
          stroke: black;
          }
          @media (prefers-color-scheme: dark) {
          path {
          stroke: white;
          }
          }
     </style>

     <g transform="scale(15.87279251248502, -15.87279251248502)   translate(3.250017830608421,-5.427305255367774)" stroke-width="0.06300088653042196"  fill="none">
         <!-- hidden lines -->
         <g  stroke="rgb(160,160,160)" fill="none" stroke-dasharray="0.06300088653042196,0.06300088653042196" >
			<path d="M1.9900000000000186,1.4444440277503339 L1.9876029578483116,1.5008192053634068 L1.9804176060776906,1.5570585702357276 L1.9684612548299327,1.613026636811332 L1.951762708002447,1.6685885731156158 L1.9303621938571611,1.7236105255773713 L1.9043112681071142,1.777959941493764 L1.8736726897142297,1.831505888361405 L1.8385202696974792,1.884119369304219 L1.7989386933156708,1.9356736338382183 L1.755023316053245,1.9860444832245199 L1.70687993390056,2.035110569674987 L1.6546245284820837,2.082753688689679 L1.598382987646502,2.1288590638218445 L1.538290802191865,2.173315623184437 L1.4744927394563871,2.2160162670320176 L1.407142494561248,2.2568581257734213 L1.336402320145585,2.295742807793617 L1.2624426354856733,2.332576636487722 L1.185441615939961,2.3672708759361494 L1.1055847637090273,2.3997419446772117 L1.0230644609445299,2.4299116170621824 L0.9380795062837544,2.457707211707734 L0.8508346359262802,2.483061766591759 L0.7615400304065474,2.5059142003707464 L0.6704108082505366,2.526209459530084 L0.5776665077363987,2.543898651012803 L0.483530558007514,2.558939160007232 L0.38822974081211403,2.571294752609809 L0.2919936441661885,2.580935663115733 L0.19505410925584457,2.587838665727152 L0.09764467191158072,2.5919871305061424 L1.8769136052725134e-14,2.593371063437689 L-0.09764467191154319,2.5919871305061424 L-0.19505410925580702,2.587838665727152 L-0.291993644166151,2.580935663115733 L-0.38822974081207645,2.571294752609809 L-0.48353055800747646,2.558939160007232 L-0.5776665077363611,2.543898651012803 L-0.670410808250499,2.526209459530084 L-0.7615400304065099,2.5059142003707464 L-0.850834635926243,2.483061766591759 L-0.9380795062837166,2.457707211707734 L-1.0230644609444925,2.429911617062182 L-1.1055847637089893,2.3997419446772117 L-1.185441615939923,2.3672708759361494 L-1.2624426354856357,2.3325766364877216 L-1.336402320145548,2.2957428077936166 L-1.4071424945612108,2.2568581257734213 L-1.4744927394563496,2.216016267032017 L-1.538290802191828,2.173315623184437 L-1.598382987646465,2.128859063821844 L-1.6546245284820467,2.0827536886896785 L-1.7068799339005227,2.0351105696749867 L-1.7550233160532076,1.9860444832245197 L-1.798938693315633,1.9356736338382183 L-1.8385202696974419,1.8841193693042189 L-1.8736726897141927,1.8315058883614046 L-1.9043112681070768,1.7779599414937637 L-1.9303621938571238,1.723610525577371 L-1.9517627080024098,1.6685885731156158 L-1.9684612548298954,1.6130266368113322 L-1.980417606077653,1.5570585702357274 L-1.9876029578482743,1.5008192053634064 L-1.9899999999999813,1.4444440277503388 " />
			<path d="M0.554013672262695,1.1245840849347442 L0.6056487808620766,1.1574760548867777 L0.6514511606204546,1.1931316832901384 L0.6909797095826287,1.2312075869519523 L0.7238537462135902,1.2713370741055507 L0.7497566755698067,1.313133675852635 L0.7684390382815963,1.3561948680700346 L0.7797209129832259,1.4001059479370535 L0.7834936490540187,1.4444440277503297 " />
			<path d="M0.7834936490540187,1.4444440277503339 L0.7797209129832259,1.488782107563614 L0.7684390382815963,1.5326931874306327 L0.7497566755698069,1.5757543796480318 L0.7238537462135903,1.6175509813951163 L0.6909797095826287,1.657680468548715 L0.6514511606204545,1.6957563722105293 L0.6056487808620764,1.7314120006138898 L0.5540136722626952,1.7643039705659231 L0.4970431091447445,1.7941155144154115 L0.435285749174328,1.8205595306984366 L0.36933634948796784,1.8433813490824231 L0.29983003885625253,1.8623611829806586 L0.22743620104658005,1.87731624621727 L0.15285202829155498,1.8881025133580198 L0.07679580694666423,1.8946161067539693 L1.8733149698659994e-14,1.8967942969400229 L-0.07679580694662677,1.8946161067539693 L-0.1528520282915175,1.8881025133580198 L-0.22743620104654255,1.87731624621727 L-0.29983003885621506,1.8623611829806586 L-0.3693363494879303,1.8433813490824231 L-0.4352857491742903,1.8205595306984366 L-0.49704310914470695,1.7941155144154115 L-0.5540136722626576,1.7643039705659231 L-0.6056487808620389,1.7314120006138896 L-0.6514511606204171,1.6957563722105289 L-0.6909797095825911,1.6576804685487148 L-0.7238537462135529,1.6175509813951163 L-0.7497566755697693,1.5757543796480318 L-0.7684390382815588,1.5326931874306324 L-0.7797209129831884,1.488782107563614 L-0.7834936490539812,1.4444440277503356 " />
			<path d="M-0.7834936490539812,1.4444440277503336 L-0.7813707390698983,1.4111670776032021 L-0.7750135133507879,1.37807045813212 L-0.7644564222536284,1.3453335227855787 L-0.7497566755697694,1.3131336758526357 L-0.7309939325001155,1.2816454110936988 L-0.708269869975014,1.251039366143723 L-0.6817076316581608,1.2214813978120798 L-0.6514511606204172,1.1931316832901382 L-0.6176644192998364,1.1661438521371865 L-0.5805305009750061,1.1406641537485385 L-0.5402506375667089,1.1168306648173905 L-0.4970431091447073,1.094772541085256 L-0.4511420610491335,1.0746093174358131 L-0.4027962350366037,1.0564502601250125 L-0.35226762132709016,1.0403937746577703 L-0.2998300388562155,1.026526872520009 L-0.2457676514267189,1.0149246996558778 L-0.19037342780018773,1.0056501292453701 L-0.13394755407395406,0.9987534209891138 L-0.07679580694662727,0.9942719487466981 L-0.019227896687666696,0.9922299980044913 L0.038444211209400475,0.9926386342704854 L0.09590798659501615,0.9954956431093496 L0.1528520282915543,1.0007855421426475 L0.20896775160328124,1.0084796649491867 L0.26395106056355594,1.0185363164108399 L0.3175039958572255,1.0309009986620015 L0.3693363494879677,1.0455067064182442 L0.4191672374405651,1.0622742900837598 L0.46672662181572483,1.0811128846698779 L0.5117567741888486,1.1019204022003113 L0.5540136722626902,1.1245840849347415 " />
			<path d="M0.7834936490540189,-6.720521781526927 L0.779720912983226,-6.676183701713647 L0.7684390382815964,-6.632272621846629 L0.749756675569807,-6.589211429629229 L0.7238537462135904,-6.547414827882145 L0.6909797095826288,-6.507285340728546 L0.6514511606204546,-6.4692094370667315 L0.6056487808620765,-6.433553808663371 L0.5540136722626953,-6.400661838711338 L0.4970431091447446,-6.3708502948618495 L0.4352857491743281,-6.344406278578824 L0.36933634948796795,-6.321584460194838 L0.29983003885625265,-6.302604626296603 L0.22743620104658016,-6.287649563059992 L0.1528520282915551,-6.276863295919242 L0.07679580694666434,-6.2703497025232915 L1.8844121334480998e-14,-6.268171512337238 L-0.07679580694662666,-6.2703497025232915 L-0.1528520282915174,-6.276863295919242 L-0.22743620104654244,-6.287649563059991 L-0.29983003885621495,-6.302604626296603 L-0.3693363494879302,-6.321584460194838 L-0.4352857491742902,-6.344406278578824 L-0.49704310914470684,-6.3708502948618495 L-0.5540136722626575,-6.400661838711338 L-0.6056487808620388,-6.433553808663372 L-0.651451160620417,-6.469209437066732 L-0.690979709582591,-6.507285340728546 L-0.7238537462135528,-6.547414827882145 L-0.7497566755697692,-6.58921142962923 L-0.7684390382815587,-6.632272621846629 L-0.7797209129831882,-6.676183701713647 L-0.7834936490539811,-6.720521781526926 " />
			<path d="M0.6123724356955031,2.7238837990126914 L0.6123724356955031,1.9073872180849651 " />
			<path d="M0.6123724356955031,1.9073872180849651 L0.8365163037373048,2.3903501312294666 " />
			<path d="M0.8365163037376716,3.206846712157136 L0.8365163037376716,2.3903501312294098 " />
			<path d="M0.8365163037376716,2.3903501312294098 L0.33353366778315924,2.680747291495455 " />
			<path d="M-0.33353366778312243,2.6576305067883905 L-0.6123724356955639,2.6144939992713665 " />
			<path d="M-0.6123724356954655,2.8186181445030853 L-0.6123724356954655,2.6144939992711542 " />
			<path d="M-0.6123724356954655,2.6144939992711542 L-0.8365163037372672,2.1315310861266528 " />
			<path d="M-0.8365163037376341,2.948027667054436 L-0.8365163037376341,2.1315310861267096 " />
			<path d="M-0.8365163037376341,2.13153108612671 L-0.22414386804215025,1.777977695533615 " />
			<path d="M-0.22414386804214984,2.594474276461341 L-0.22414386804214984,1.7779776955336146 " />
			<path d="M-0.2241438680421498,1.777977695533615 L0.6123724356956014,1.9073872180847533 " />
			<path d="M-0.7834936490539813,1.4444440277503334 L-0.7834936490539813,0.3883130854437695 " />
			<path d="M0.7834936490540189,1.4444440277503334 L0.7834936490540189,0.3883130854437695 " />

         </g>

         <!-- solid lines -->
         <g  stroke="rgb(0,0,0)" fill="none">
			<path d="M1.4071424945612478,0.632029929727246 L1.474492739456388,0.6728717884686507 L1.5382908021918658,0.7155724323162306 L1.5983829876465023,0.760028991678823 L1.6546245284820837,0.8061343668109888 L1.70687993390056,0.8537774858256805 L1.7550233160532447,0.9028435722761474 L1.7989386933156704,0.953214421662449 L1.8385202696974787,1.0047686861964478 L1.8736726897142293,1.0573821671392616 L1.9043112681071137,1.1109281140069025 L1.9303621938571607,1.1652775299232951 L1.9517627080024469,1.2202994823850513 L1.968461254829933,1.275861418689336 L1.9804176060776906,1.3318294852649402 L1.9876029578483116,1.3880688501372607 L1.9900000000000186,1.4444440277503232 " />
			<path d="M-1.9899999999999813,1.4444440277503336 L-1.988651545330797,1.402155214204435 L-1.9846080087905749,1.3599237117621341 L-1.9778748703046698,1.3178067538572553 L-1.9684612548298956,1.2758614186893358 L-1.956379919988102,1.234144551869488 L-1.9416472387766532,1.1927126893814777 L-1.9242831773792373,1.1516219809624162 L-1.904311268107077,1.1109281140069036 L-1.8817585775072192,1.0706862380977575 L-1.856655669681112,1.0309508902655975 L-1.8290365648631963,0.9917759210785799 L-1.7989386933156337,0.9532144216624495 L-1.766402844601661,0.9153186517498074 L-1.7314731123063172,0.8781399688561116 L-1.6941968342794593,0.8417287586783899 L-1.6546245284820469,0.8061343668109889 L-1.6128098245226457,0.7714050318709037 L-1.5688093909769285,0.7375878201233177 L-1.4744927394563505,0.6728717884686504 L-1.3721856840267448,0.6123369736296905 L-1.2624426354856366,0.5563114190129457 L-1.1458583009214947,0.5050987319530845 L-1.0230644609444928,0.4589764384384851 L-0.8947265460126489,0.41819447917386077 L-0.7615400304065109,0.3829738551299213 L-0.6242266633937767,0.35350542991996825 L-0.4835305580074786,0.32994889549343576 L-0.3402141586329816,0.3124319067513812 L-0.1950541092558083,0.30104938977351536 L-0.04883704476057865,0.2958630274055527 L0.09764467191157991,0.2969009249945249 L0.2435972436464578,0.3041574580834714 L0.3882297408121123,0.31759330289085796 L0.5307583873750663,0.337135649409557 L0.6704108082505359,0.36267859597058316 L0.8064302148699474,0.39408372313341444 L0.9380795062837539,0.4311808437929334 L1.0646452635753416,0.4737689254380938 L1.1854416159399601,0.5216171795645177 L1.2998139574780343,0.5744663123373966 L1.4071424945612354,0.6320299297272388 " />
			<path d="M0.5540136722626952,-7.040381724342517 L0.6056487808620767,-7.007489754390483 L0.6514511606204547,-6.971834125987122 L0.6909797095826288,-6.9337582223253085 L0.7238537462135903,-6.89362873517171 L0.7497566755698069,-6.851832133424626 L0.7684390382815964,-6.808770941207226 L0.779720912983226,-6.764859861340208 L0.7834936490540189,-6.720521781526932 " />
			<path d="M-0.7834936490539811,-6.720521781526927 L-0.7813707390698982,-6.753798731674059 L-0.7750135133507878,-6.786895351145141 L-0.7644564222536283,-6.819632286491682 L-0.7497566755697693,-6.851832133424625 L-0.7309939325001154,-6.883320398183562 L-0.7082698699750138,-6.913926443133538 L-0.6817076316581607,-6.943484411465182 L-0.6514511606204171,-6.971834125987122 L-0.6176644192998363,-6.998821957140074 L-0.580530500975006,-7.024301655528722 L-0.5402506375667088,-7.048135144459871 L-0.4970431091447072,-7.070193268192005 L-0.4511420610491334,-7.0903564918414475 L-0.4027962350366036,-7.108515549152249 L-0.35226762132709005,-7.124572034619491 L-0.2998300388562154,-7.138438936757252 L-0.2457676514267188,-7.150041109621383 L-0.19037342780018762,-7.159315680031891 L-0.13394755407395395,-7.166212388288147 L-0.07679580694662716,-7.170693860530563 L-0.019227896687666585,-7.172735811272769 L0.038444211209400586,-7.172327175006775 L0.09590798659501626,-7.169470166167911 L0.15285202829155442,-7.164180267134614 L0.20896775160328135,-7.156486144328074 L0.26395106056355605,-7.146429492866421 L0.3175039958572256,-7.13406481061526 L0.3693363494879678,-7.119459102859016 L0.4191672374405652,-7.102691519193501 L0.46672662181572494,-7.083852924607383 L0.5117567741888487,-7.06304540707695 L0.5540136722626903,-7.040381724342519 " />
			<path d="M0.6123724356955031,2.7238837990126914 L0.8365163037373048,3.206846712157193 " />
			<path d="M-0.22414386804214984,2.594474276461341 L0.6123724356956014,2.723883799012479 " />
			<path d="M-0.8365163037376341,2.948027667054436 L-0.22414386804215025,2.594474276461341 " />
			<path d="M-0.6123724356954655,3.4309905801988805 L-0.8365163037372672,2.948027667054379 " />
			<path d="M0.2241438680421872,3.560400102750231 L-0.6123724356955639,3.4309905801990928 " />
			<path d="M0.8365163037376716,3.206846712157136 L0.22414386804218733,3.5604001027502306 " />
			<path d="M0.33353366778315924,2.680747291495455 L0.22414386804218733,2.7439035218225043 " />
			<path d="M0.2241438680421872,3.560400102750231 L0.2241438680421872,2.7439035218225047 " />
			<path d="M0.22414386804218722,2.7439035218225047 L-0.33353366778312243,2.6576305067883905 " />
			<path d="M-0.6123724356954655,3.4309905801988805 L-0.6123724356954655,2.8186181445030853 " />
			<path d="M1.4071424945612478,2.1425486044435393 L1.474492739456388,2.1833904631849443 L1.5382908021918658,2.226091107032524 L1.5983829876465023,2.2705476663951165 L1.6546245284820837,2.3166530415272826 L1.70687993390056,2.364296160541974 L1.7550233160532447,2.413362246992441 L1.7989386933156704,2.4637330963787423 L1.8385202696974787,2.5152873609127413 L1.8736726897142293,2.5679008418555553 L1.9043112681071137,2.621446788723196 L1.9303621938571607,2.6757962046395884 L1.9517627080024469,2.730818157101345 L1.968461254829933,2.7863800934056298 L1.9804176060776906,2.842348159981234 L1.9876029578483116,2.8985875248535544 L1.9900000000000186,2.954962702466617 " />
			<path d="M-1.9899999999999813,2.954962702466627 L-1.988651545330797,2.9126738889207284 L-1.9846080087905749,2.8704423864784276 L-1.9778748703046698,2.8283254285735486 L-1.9684612548298956,2.7863800934056293 L-1.956379919988102,2.7446632265857818 L-1.9416472387766532,2.703231364097771 L-1.9242831773792373,2.6621406556787095 L-1.904311268107077,2.621446788723197 L-1.8817585775072192,2.581204912814051 L-1.856655669681112,2.5414695649818912 L-1.8290365648631963,2.5022945957948735 L-1.7989386933156337,2.463733096378743 L-1.766402844601661,2.425837326466101 L-1.7314731123063172,2.388658643572405 L-1.6941968342794593,2.3522474333946835 L-1.6546245284820469,2.3166530415272826 L-1.6128098245226457,2.281923706587197 L-1.5688093909769285,2.248106494839611 L-1.4744927394563505,2.183390463184944 L-1.3721856840267448,2.122855648345984 L-1.2624426354856366,2.066830093729239 L-1.1458583009214947,2.015617406669378 L-1.0230644609444928,1.9694951131547787 L-0.894726546012649,1.9287131538901543 L-0.761540030406511,1.8934925298462149 L-0.6242266633937769,1.8640241046362618 L-0.4835305580074786,1.8404675702097293 L-0.3402141586329816,1.8229505814676747 L-0.19505410925580832,1.811568064489809 L-0.04883704476057867,1.8063817021218462 L0.0976446719115799,1.8074195997108184 L0.24359724364645777,1.814676132799765 L0.3882297408121123,1.8281119776071515 L0.5307583873750662,1.8476543241258505 L0.6704108082505358,1.8731972706868767 L0.8064302148699473,1.904602397849708 L0.9380795062837538,1.941699518509227 L1.0646452635753416,1.9842876001543872 L1.1854416159399601,2.0321358542808112 L1.2998139574780343,2.0849849870536903 L1.4071424945612354,2.1425486044435322 " />
			<path d="M1.301076477383266,2.326260335152278 L1.363350070653144,2.3640236618277477 L1.4223392341874552,2.4035056641792787 L1.4779018579244056,2.444611226604992 L1.529904086636702,2.4872413222045826 L1.5782206424005192,2.5312932513437953 L1.6227351264009917,2.57666088906684 L1.663340299347154,2.6232349407607067 L1.699938339820786,2.6709032054554593 L1.7324410799367764,2.719550846126202 L1.7607702177472826,2.7690606663455277 L1.7848575058779792,2.8193133926199816 L1.8046449159419624,2.870187961730349 L1.8200847783352159,2.921561812383557 L1.831139897076861,2.973311180473563 L1.837783639417536,3.0253113972399297 L1.8400000000000187,3.077437189605786 L1.837783639417536,3.129562981971642 L1.831139897076861,3.181563198738009 L1.820084778335216,3.2333125668280145 L1.804644915941963,3.284686417481222 L1.7848575058779803,3.3355609865915885 L1.7607702177472837,3.385813712866042 L1.7324410799367778,3.435323533085368 L1.699938339820787,3.483971173756111 L1.6633402993471544,3.531639438450865 L1.622735126400992,3.578213490144732 L1.5782206424005196,3.6235811278677765 L1.5299040866367024,3.667633057006989 L1.477901857924406,3.7102631526065792 L1.4223392341874557,3.751368715032293 L1.3633500706531447,3.790850717383824 L1.3010764773832677,3.828614044059293 L1.2356684769185342,3.864567719897062 L1.1672836428611284,3.8986251293428675 L1.0960867202660984,3.930704225114278 L1.0222492287560883,3.9607277258597833 L0.9459490493155469,3.988623302336339 L0.867369995759855,4.01432375165685 L0.7867013719117386,4.0377671591878075 L0.704137515551785,4.058897047707072 L0.6198773302417051,4.077662513462439 L0.5341238061482313,4.094018348803245 L0.4470835310220264,4.1079251510895505 L0.35896619250969725,4.119349417616557 L0.2699840729978871,4.128263626325552 L0.18035153820641334,4.134646302106964 L0.0902845207624713,4.1384820685357795 L2.0827386003678725e-14,4.139761684914697 L-0.09028452076242964,4.1384820685357795 L-0.18035153820637173,4.134646302106965 L-0.2699840729978455,4.128263626325553 L-0.3589661925096556,4.119349417616558 L-0.4470835310219849,4.107925151089551 L-0.5341238061481898,4.094018348803246 L-0.6198773302416637,4.07766251346244 L-0.7041375155517438,4.058897047707073 L-0.7867013719116974,4.037767159187808 L-0.8673699957598168,4.01432375165685 L-0.9459490493155088,3.9886233023363395 L-1.0222492287560485,3.960727725859784 L-1.0960867202660578,3.930704225114279 L-1.1672836428610878,3.898625129342869 L-1.2356684769184938,3.864567719897064 L-1.3010764773832273,3.828614044059295 L-1.3633500706531045,3.790850717383826 L-1.4223392341874157,3.751368715032295 L-1.4779018579243661,3.710263152606581 L-1.5299040866366629,3.667633057006991 L-1.57822064240048,3.6235811278677783 L-1.6227351264009526,3.5782134901447336 L-1.6633402993471167,3.5316394384508656 L-1.6999383398207484,3.4839711737561125 L-1.7324410799367391,3.43532353308537 L-1.7607702177472462,3.3858137128660424 L-1.7848575058779426,3.335560986591589 L-1.8046449159419256,3.284686417481222 L-1.8200847783351786,3.233312566828015 L-1.8311398970768238,3.1815631987380093 L-1.8377836394174987,3.1295629819716426 L-1.8399999999999814,3.0774371896057864 L-1.8377836394174987,3.02531139723993 L-1.8311398970768238,2.9733111804735635 L-1.8200847783351788,2.9215618123835574 L-1.8046449159419258,2.8701879617303505 L-1.784857505877943,2.819313392619984 L-1.7607702177472464,2.7690606663455304 L-1.7324410799367405,2.719550846126204 L-1.6999383398207502,2.6709032054554616 L-1.6633402993471187,2.6232349407607085 L-1.6227351264009566,2.576660889066842 L-1.578220642400484,2.531293251343797 L-1.529904086636667,2.487241322204585 L-1.4779018579243708,2.444611226604994 L-1.4223392341874206,2.4035056641792805 L-1.3633500706531074,2.3640236618277477 L-1.3010764773832306,2.326260335152279 L-1.2356684769184971,2.29030665931451 L-1.1672836428610889,2.256249249868703 L-1.0960867202660587,2.224170154097293 L-1.0222492287560498,2.194146653351788 L-0.9459490493155098,2.1662510768752328 L-0.8673699957598179,2.1405506275547226 L-0.7867013719117015,2.1171072200237644 L-0.704137515551748,2.0959773315045003 L-0.619877330241668,2.077211865749133 L-0.5341238061481942,2.0608560304083268 L-0.4470835310219892,2.0469492281220214 L-0.35896619250966005,2.035524961595015 L-0.26998407299785,2.0266107528860196 L-0.1803515382063762,2.0202280771046075 L-0.09028452076243414,2.016392310675792 L1.468820304986957e-14,2.0151126942968745 L0.09028452076246353,2.0163923106757915 L0.1803515382064056,2.0202280771046066 L0.26998407299787947,2.026610752886019 L0.3589661925096896,2.035524961595014 L0.44708353102201887,2.04694922812202 L0.5341238061482237,2.060856030408326 L0.6198773302417008,2.0772118657491316 L0.7041375155517808,2.0959773315044994 L0.7867013719117345,2.1171072200237635 L0.8673699957598539,2.140550627554722 L0.9459490493155459,2.1662510768752323 L1.0222492287560856,2.1941466533517877 L1.0960867202660949,2.2241701540972927 L1.167283642861125,2.256249249868703 L1.235668476918531,2.290306659314508 L1.3010764773832413,2.3262603351522637 " />
			<path d="M1.9900000000000189,1.4444440277503336 L1.9900000000000189,2.954962702466627 " />
			<path d="M-1.9899999999999816,1.4444440277503336 L-1.9899999999999816,2.954962702466627 " />
			<path d="M-0.7834936490539813,0.3883130854437695 L-0.7834936490539812,-6.720521781526927 " />
			<path d="M0.7834936490540189,0.3883130854437695 L0.783493649054019,-6.720521781526927 " />
			<path d="M1.9900000000000186,2.954962702466627 L1.9860511595886916,3.0325610926151834 L1.9741825301749971,3.109985887853 L1.9543342230543408,3.1870466695794692 L1.9264209617499555,3.2635230138893117 L1.9033120867260125,3.3140000234181755 L1.876565131190117,3.364017943092014 L1.8461600888832532,3.4134766666822047 L1.812090700855125,3.4622716311354993 L1.7743644554641547,3.5102938165740216 L1.7330025883774842,3.557429746295269 L1.688040082570975,3.603561486772112 L1.6395256683292068,3.6485666476527934 L1.5847904064519063,3.694524684779975 L1.5263014762296232,3.73897963057219 L1.4641731520791208,3.7818020981391802 L1.398532498387844,3.8228692466603995 L1.3295193695139178,3.8620647813850133 L1.2572864097861487,3.8992789536318977 L1.181999053504023,3.934408560789642 L1.1038355249377076,3.9673569463165475 L1.0381179558333795,3.9925412630277513 L0.9707073780133195,4.016172708964263 L0.8312545453321143,4.0586127465502475 L0.6863883363591398,4.094379687383845 L0.5370466385639716,4.123225939350852 L0.38419391742071396,4.144953689913513 L0.22882121640799852,4.1594149061105234 L0.07194615700898342,4.166511334557027 L-0.08538706128864539,4.166194501444616 L-0.1684155853429087,4.163029136111434 L-0.2511455647821165,4.157796606155035 L-0.33341981870033577,4.150506963402024 L-0.4150840699333601,4.141174128648731 L-0.4959869450587099,4.129815891661213 L-0.5759799743956322,4.116453911175253 L-0.654917592005101,4.101113714896361 L-0.7326571356898172,4.083824699499767 L-0.8090588469942078,4.064620130630436 L-0.8839858712044273,4.043537142903051 L-0.9573042573483564,4.020616739902026 L-1.0288829581956032,3.995903794181499 L-1.0985938302575011,3.9694470472653336 L-1.1663116337871127,3.94129910964712 L-1.2319140327792244,3.9115164607901747 L-1.2952815949703524,3.8801594491275386 L-1.3898660158659768,3.828003579842929 L-1.4783303014373494,3.7724051102583167 L-1.5603284929722974,3.7136524566092097 L-1.6355624527122767,3.652054305615051 L-1.6847604435378327,3.6067485538003776 L-1.7303490133309032,3.560288137369305 L-1.772277072952237,3.512798717262534 L-1.8105078175004745,3.464401420555628 L-1.845018726312148,3.4152128404590147 L-1.8758015629616807,3.365345036317985 L-1.9028623752613878,3.314905533612693 L-1.926221495261476,3.2639973239581574 L-1.9542225721411912,3.1874057148212955 L-1.974133109580893,3.110226712508149 L-1.9860388388720303,3.0326819171669372 L-1.9899999999999816,2.954962702466633 " />

         </g>
     </g>
     
</svg>
