<?xml version="1.0" encoding="UTF-8" standalone="no"?>
<svg
    xmlns:svg="http://www.w3.org/2000/svg"
    xmlns="http://www.w3.org/2000/svg"
    width="800"
    height="240"

>
     <style>
          path {
          stroke: black;
          }
          @media (prefers-color-scheme: dark) {
          path {
          stroke: white;
          }
          }
     </style>

     <g transform="scale(13.874807739065147, -13.874807739065147)   translate(3.431461515259029,-6.240490916886786)" stroke-width="0.07207307076295226"  fill="none">
         <!-- hidden lines -->
         <g  stroke="rgb(160,160,160)" fill="none" stroke-dasharray="0.07207307076295226,0.07207307076295226" >
			<path d="M1.9900000000000164,2.07618600461874 L1.9876029578483094,2.1325611822318127 L1.9804176060776884,2.188800547104133 L1.9684612548299305,2.244768613679738 L1.951762708002445,2.3003305499840216 L1.930362193857159,2.355352502445777 L1.904311268107112,2.40970191836217 L1.8736726897142275,2.463247865229811 L1.838520269697477,2.515861346172625 L1.7989386933156686,2.567415610706624 L1.7550233160532427,2.6177864600929257 L1.7068799339005578,2.6668525465433928 L1.6546245284820815,2.7144956655580845 L1.5983829876464999,2.7606010406902506 L1.5382908021918629,2.805057600052843 L1.474492739456385,2.847758243900423 L1.4071424945612458,2.8886001026418273 L1.3364023201455828,2.927484784662023 L1.262442635485671,2.9643186133561277 L1.1854416159399588,2.9990128528045554 L1.105584763709025,3.0314839215456177 L1.0230644609445276,3.061653593930588 L0.938079506283752,3.0894491885761397 L0.8508346359262778,3.114803743460165 L0.761540030406545,3.137656177239152 L0.6704108082505342,3.1579514363984895 L0.5776665077363964,3.175640627881209 L0.4835305580075117,3.1906811368756376 L0.38822974081211176,3.2030367294782147 L0.29199364416618623,3.2126776399841392 L0.19505410925584227,3.2195806425955578 L0.09764467191157843,3.223729107374548 L1.6473028971143274e-14,3.225113040306095 L-0.09764467191154548,3.223729107374548 L-0.19505410925580932,3.2195806425955578 L-0.29199364416615325,3.2126776399841392 L-0.3882297408120787,3.2030367294782147 L-0.48353055800747874,3.1906811368756376 L-0.5776665077363634,3.175640627881209 L-0.6704108082505014,3.1579514363984895 L-0.7615400304065122,3.137656177239152 L-0.8508346359262453,3.1148037434601648 L-0.938079506283719,3.0894491885761397 L-1.0230644609444948,3.061653593930588 L-1.1055847637089915,3.0314839215456173 L-1.1854416159399253,2.9990128528045554 L-1.262442635485638,2.9643186133561277 L-1.3364023201455502,2.9274847846620227 L-1.407142494561213,2.888600102641827 L-1.4744927394563518,2.847758243900423 L-1.5382908021918302,2.8050576000528427 L-1.5983829876464672,2.7606010406902497 L-1.6546245284820489,2.7144956655580845 L-1.706879933900525,2.6668525465433923 L-1.7550233160532098,2.6177864600929257 L-1.7989386933156353,2.567415610706624 L-1.838520269697444,2.515861346172625 L-1.8736726897141949,2.4632478652298104 L-1.904311268107079,2.4097019183621695 L-1.930362193857126,2.355352502445777 L-1.951762708002412,2.3003305499840216 L-1.9684612548298976,2.244768613679738 L-1.9804176060776553,2.188800547104133 L-1.9876029578482766,2.1325611822318122 L-1.9899999999999836,2.076186004618745 " />
			<path d="M0.5540136722626927,1.75632606180315 L0.6056487808620743,1.7892180317551836 L0.6514511606204523,1.824873660158544 L0.6909797095826263,1.8629495638203581 L0.7238537462135879,1.9030790509739566 L0.7497566755698044,1.944875652721041 L0.768439038281594,1.9879368449384405 L0.7797209129832235,2.0318479248054593 L0.7834936490540164,2.0761860046187355 " />
			<path d="M0.7834936490540164,2.0761860046187395 L0.7797209129832235,2.12052408443202 L0.768439038281594,2.1644351642990385 L0.7497566755698045,2.2074963565164376 L0.723853746213588,2.2492929582635224 L0.6909797095826263,2.2894224454171206 L0.6514511606204522,2.327498349078935 L0.6056487808620741,2.3631539774822956 L0.5540136722626928,2.396045947434329 L0.4970431091447422,2.4258574912838173 L0.4352857491743257,2.452301507566842 L0.36933634948796557,2.475123325950829 L0.29983003885625026,2.494103159849064 L0.22743620104657775,2.5090582230856757 L0.15285202829155267,2.5198444902264256 L0.07679580694666194,2.526358083622375 L1.6437042617078135e-14,2.5285362738084287 L-0.07679580694662906,2.526358083622375 L-0.1528520282915198,2.5198444902264256 L-0.22743620104654486,2.5090582230856757 L-0.29983003885621734,2.494103159849064 L-0.3693363494879326,2.475123325950829 L-0.4352857491742926,2.452301507566842 L-0.4970431091447092,2.4258574912838173 L-0.55401367226266,2.3960459474343287 L-0.6056487808620412,2.3631539774822956 L-0.6514511606204194,2.327498349078935 L-0.6909797095825935,2.2894224454171206 L-0.7238537462135552,2.249292958263522 L-0.7497566755697717,2.2074963565164376 L-0.7684390382815611,2.1644351642990385 L-0.7797209129831907,2.1205240844320197 L-0.7834936490539836,2.0761860046187417 " />
			<path d="M-0.7834936490539836,2.0761860046187395 L-0.7813707390699006,2.042909054471608 L-0.7750135133507903,2.009812435000526 L-0.7644564222536308,1.9770754996539845 L-0.7497566755697718,1.9448756527210413 L-0.7309939325001178,1.9133873879621048 L-0.7082698699750163,1.8827813430121287 L-0.6817076316581632,1.8532233746804856 L-0.6514511606204195,1.824873660158544 L-0.6176644192998387,1.7978858290055924 L-0.5805305009750085,1.7724061306169445 L-0.5402506375667112,1.7485726416857963 L-0.49704310914470956,1.7265145179536618 L-0.4511420610491358,1.706351294304219 L-0.402796235036606,1.6881922369934186 L-0.35226762132709244,1.672135751526176 L-0.2998300388562178,1.6582688493884148 L-0.24576765142672122,1.6466666765242834 L-0.19037342780019004,1.637392106113776 L-0.13394755407395637,1.6304953978575196 L-0.07679580694662956,1.626013925615104 L-0.019227896687668992,1.6239719748728971 L0.03844421120939818,1.6243806111388912 L0.09590798659501386,1.6272376199777554 L0.152852028291552,1.6325275190110533 L0.20896775160327893,1.6402216418175926 L0.26395106056355366,1.6502782932792457 L0.3175039958572232,1.6626429755304073 L0.3693363494879654,1.67724868328665 L0.41916723744056283,1.6940162669521657 L0.46672662181572255,1.712854861538284 L0.5117567741888462,1.7336623790687171 L0.5540136722626878,1.756326061803147 " />
			<path d="M0.7834936490540165,-7.721772966513974 L0.7797209129832237,-7.677434886700694 L0.7684390382815941,-7.633523806833676 L0.7497566755698046,-7.590462614616276 L0.7238537462135881,-7.548666012869192 L0.6909797095826264,-7.508536525715593 L0.6514511606204523,-7.470460622053778 L0.6056487808620742,-7.434804993650418 L0.5540136722626929,-7.401913023698385 L0.4970431091447423,-7.372101479848896 L0.43528574917432583,-7.345657463565871 L0.3693363494879657,-7.322835645181885 L0.29983003885625037,-7.30385581128365 L0.22743620104657788,-7.288900748047038 L0.1528520282915528,-7.2781144809062885 L0.07679580694666206,-7.271600887510338 L1.657020858006334e-14,-7.269422697324285 L-0.07679580694662894,-7.271600887510338 L-0.15285202829151967,-7.2781144809062885 L-0.22743620104654472,-7.288900748047038 L-0.29983003885621723,-7.30385581128365 L-0.3693363494879325,-7.322835645181884 L-0.43528574917429247,-7.345657463565871 L-0.4970431091447091,-7.372101479848896 L-0.5540136722626599,-7.401913023698385 L-0.6056487808620411,-7.434804993650419 L-0.6514511606204193,-7.470460622053779 L-0.6909797095825934,-7.508536525715593 L-0.7238537462135551,-7.548666012869192 L-0.7497566755697715,-7.590462614616277 L-0.768439038281561,-7.633523806833676 L-0.7797209129831906,-7.677434886700694 L-0.7834936490539834,-7.7217729665139725 " />
			<path d="M0.6123724356955008,3.355625775881097 L0.6123724356955008,2.5391291949533707 " />
			<path d="M0.6123724356955008,2.5391291949533707 L0.8365163037373025,3.022092108097872 " />
			<path d="M0.8365163037376693,3.838588689025542 L0.8365163037376693,3.022092108097816 " />
			<path d="M0.8365163037376693,3.022092108097816 L0.3335336677831569,3.312489268363861 " />
			<path d="M-0.3335336677831247,3.289372483656796 L-0.6123724356955662,3.246235976139772 " />
			<path d="M-0.6123724356954678,3.450360121371492 L-0.6123724356954678,3.2462359761395607 " />
			<path d="M-0.6123724356954678,3.2462359761395603 L-0.8365163037372695,2.763273062995059 " />
			<path d="M-0.8365163037376364,3.579769643922842 L-0.8365163037376364,2.7632730629951157 " />
			<path d="M-0.8365163037376364,2.7632730629951157 L-0.22414386804215258,2.4097196724020207 " />
			<path d="M-0.22414386804215214,3.226216253329747 L-0.22414386804215214,2.4097196724020207 " />
			<path d="M-0.2241438680421521,2.409719672402021 L0.6123724356955991,2.5391291949531594 " />
			<path d="M-0.7834936490539837,2.076186004618739 L-0.7834936490539837,1.020055062312176 " />
			<path d="M0.7834936490540165,2.076186004618739 L0.7834936490540165,1.0200550623121742 " />

         </g>

         <!-- solid lines -->
         <g  stroke="rgb(0,0,0)" fill="none">
			<path d="M1.4071424945612456,1.2637719065956519 L1.4744927394563858,1.3046137653370566 L1.5382908021918635,1.3473144091846363 L1.5983829876465,1.3917709685472288 L1.6546245284820815,1.4378763436793947 L1.7068799339005578,1.4855194626940862 L1.7550233160532425,1.5345855491445533 L1.7989386933156681,1.5849563985308548 L1.8385202696974765,1.6365106630648536 L1.873672689714227,1.6891241440076676 L1.9043112681071115,1.7426700908753083 L1.9303621938571585,1.797019506791701 L1.9517627080024447,1.852041459253457 L1.9684612548299307,1.9076033955577418 L1.9804176060776884,1.963571462133346 L1.9876029578483094,2.0198108270056667 L1.9900000000000164,2.0761860046187293 " />
			<path d="M-1.9899999999999836,2.0761860046187395 L-1.9886515453307991,2.0338971910728407 L-1.984608008790577,1.99166568863054 L-1.977874870304672,1.9495487307256611 L-1.9684612548298979,1.9076033955577416 L-1.9563799199881042,1.8658865287378938 L-1.9416472387766555,1.8244546662498835 L-1.9242831773792395,1.783363957830822 L-1.9043112681070793,1.7426700908753094 L-1.8817585775072214,1.7024282149661634 L-1.8566556696811143,1.6626928671340035 L-1.8290365648631985,1.6235178979469858 L-1.798938693315636,1.5849563985308555 L-1.7664028446016633,1.5470606286182131 L-1.7314731123063194,1.5098819457245174 L-1.6941968342794615,1.4734707355467958 L-1.654624528482049,1.4378763436793949 L-1.6128098245226479,1.4031470087393094 L-1.5688093909769307,1.3693297969917235 L-1.4744927394563527,1.3046137653370562 L-1.372185684026747,1.2440789504980962 L-1.2624426354856388,1.1880533958813515 L-1.1458583009214969,1.1368407088214902 L-1.023064460944495,1.090718415306891 L-0.8947265460126512,1.0499364560422666 L-0.7615400304065132,1.0147158319983272 L-0.6242266633937791,0.9852474067883741 L-0.48353055800748085,0.9616908723618416 L-0.3402141586329839,0.944173883619787 L-0.1950541092558106,0.9327913666419212 L-0.04883704476058095,0.9276050042739585 L0.09764467191157762,0.9286429018629307 L0.2435972436464555,0.9358994349518772 L0.38822974081211004,0.9493352797592638 L0.530758387375064,0.9688776262779628 L0.6704108082505336,0.994420572838989 L0.806430214869945,1.0258257000018203 L0.9380795062837516,1.0629228206613393 L1.0646452635753394,1.1055109023064995 L1.185441615939958,1.1533591564329235 L1.299813957478032,1.2062082892058026 L1.4071424945612332,1.2637719065956445 " />
			<path d="M0.5540136722626928,-8.041632909329564 L0.6056487808620744,-8.00874093937753 L0.6514511606204524,-7.973085310974169 L0.6909797095826264,-7.935009407312355 L0.723853746213588,-7.894879920158757 L0.7497566755698045,-7.853083318411673 L0.7684390382815941,-7.810022126194273 L0.7797209129832237,-7.7661110463272545 L0.7834936490540165,-7.721772966513979 " />
			<path d="M-0.7834936490539834,-7.721772966513974 L-0.7813707390699005,-7.755049916661106 L-0.7750135133507902,-7.788146536132188 L-0.7644564222536306,-7.820883471478729 L-0.7497566755697717,-7.853083318411672 L-0.7309939325001177,-7.884571583170609 L-0.7082698699750162,-7.915177628120585 L-0.6817076316581631,-7.944735596452229 L-0.6514511606204194,-7.973085310974169 L-0.6176644192998386,-8.000073142127121 L-0.5805305009750084,-8.02555284051577 L-0.5402506375667111,-8.049386329446918 L-0.49704310914470945,-8.071444453179051 L-0.4511420610491357,-8.091607676828495 L-0.4027962350366059,-8.109766734139296 L-0.35226762132709233,-8.125823219606538 L-0.2998300388562177,-8.139690121744298 L-0.24576765142672108,-8.15129229460843 L-0.1903734278001899,-8.160566865018938 L-0.13394755407395623,-8.167463573275194 L-0.07679580694662944,-8.17194504551761 L-0.01922789668766886,-8.173986996259817 L0.03844421120939832,-8.173578359993822 L0.09590798659501398,-8.170721351154958 L0.15285202829155214,-8.16543145212166 L0.20896775160327907,-8.157737329315122 L0.2639510605635538,-8.147680677853469 L0.31750399585722333,-8.135315995602307 L0.3693363494879655,-8.120710287846064 L0.41916723744056295,-8.103942704180549 L0.46672662181572266,-8.08510410959443 L0.5117567741888464,-8.064296592063997 L0.5540136722626879,-8.041632909329566 " />
			<path d="M0.6123724356955008,3.355625775881097 L0.8365163037373025,3.8385886890255985 " />
			<path d="M-0.22414386804215214,3.226216253329747 L0.6123724356955991,3.355625775880885 " />
			<path d="M-0.8365163037376364,3.579769643922842 L-0.22414386804215258,3.226216253329747 " />
			<path d="M-0.6123724356954678,4.062732557067287 L-0.8365163037372695,3.5797696439227855 " />
			<path d="M0.2241438680421849,4.192142079618637 L-0.6123724356955662,4.062732557067498 " />
			<path d="M0.8365163037376693,3.838588689025542 L0.224143868042185,4.192142079618637 " />
			<path d="M0.3335336677831569,3.312489268363861 L0.224143868042185,3.3756454986909104 " />
			<path d="M0.2241438680421849,4.192142079618637 L0.2241438680421849,3.3756454986909104 " />
			<path d="M0.22414386804218492,3.3756454986909104 L-0.3335336677831247,3.289372483656796 " />
			<path d="M-0.6123724356954678,4.062732557067287 L-0.6123724356954678,3.450360121371492 " />
			<path d="M1.4071424945612456,2.774290581311945 L1.4744927394563858,2.81513244005335 L1.5382908021918635,2.8578330839009296 L1.5983829876465,2.902289643263522 L1.6546245284820815,2.948395018395688 L1.7068799339005578,2.9960381374103795 L1.7550233160532425,3.0451042238608466 L1.7989386933156681,3.095475073247148 L1.8385202696974765,3.147029337781147 L1.873672689714227,3.199642818723961 L1.9043112681071115,3.2531887655916014 L1.9303621938571585,3.307538181507994 L1.9517627080024447,3.3625601339697506 L1.9684612548299307,3.4181220702740354 L1.9804176060776884,3.4740901368496395 L1.9876029578483094,3.53032950172196 L1.9900000000000164,3.5867046793350226 " />
			<path d="M-1.9899999999999836,3.586704679335033 L-1.9886515453307991,3.544415865789134 L-1.984608008790577,3.5021843633468333 L-1.977874870304672,3.4600674054419542 L-1.9684612548298979,3.418122070274035 L-1.9563799199881042,3.3764052034541874 L-1.9416472387766555,3.334973340966177 L-1.9242831773792395,3.293882632547115 L-1.9043112681070793,3.2531887655916027 L-1.8817585775072214,3.2129468896824567 L-1.8566556696811143,3.173211541850297 L-1.8290365648631985,3.134036572663279 L-1.798938693315636,3.0954750732471488 L-1.7664028446016633,3.0575793033345064 L-1.7314731123063194,3.0204006204408107 L-1.6941968342794615,2.983989410263089 L-1.654624528482049,2.948395018395688 L-1.6128098245226479,2.9136656834556027 L-1.5688093909769307,2.8798484717080166 L-1.4744927394563527,2.8151324400533495 L-1.372185684026747,2.7545976252143896 L-1.2624426354856388,2.6985720705976446 L-1.1458583009214969,2.6473593835377836 L-1.023064460944495,2.6012370900231843 L-0.8947265460126512,2.5604551307585597 L-0.7615400304065132,2.5252345067146207 L-0.6242266633937791,2.4957660815046676 L-0.4835305580074809,2.472209547078135 L-0.34021415863298393,2.45469255833608 L-0.1950541092558106,2.4433100413582145 L-0.04883704476058096,2.4381236789902516 L0.0976446719115776,2.439161576579224 L0.2435972436464555,2.4464181096681705 L0.38822974081211,2.459853954475557 L0.530758387375064,2.479396300994256 L0.6704108082505336,2.5049392475552823 L0.806430214869945,2.5363443747181136 L0.9380795062837516,2.5734414953776326 L1.0646452635753394,2.616029577022793 L1.185441615939958,2.663877831149217 L1.299813957478032,2.716726963922096 L1.4071424945612332,2.774290581311938 " />
			<path d="M1.3010764773832637,2.9580023120206835 L1.3633500706531418,2.9957656386961533 L1.422339234187453,3.0352476410476843 L1.4779018579244034,3.076353203473398 L1.5299040866366997,3.118983299072988 L1.578220642400517,3.163035228212201 L1.6227351264009895,3.2084028659352457 L1.6633402993471518,3.2549769176291123 L1.6999383398207837,3.302645182323865 L1.7324410799367742,3.3512928229946075 L1.7607702177472804,3.4008026432139333 L1.784857505877977,3.451055369488387 L1.8046449159419602,3.501929938598755 L1.8200847783352136,3.5533037892519626 L1.8311398970768589,3.6050531573419686 L1.8377836394175338,3.6570533741083353 L1.8400000000000165,3.7091791664741915 L1.8377836394175338,3.761304958840048 L1.8311398970768589,3.8133051756064145 L1.8200847783352139,3.86505454369642 L1.8046449159419609,3.9164283943496274 L1.784857505877978,3.967302963459994 L1.7607702177472815,4.017555689734447 L1.7324410799367755,4.067065509953774 L1.6999383398207848,4.115713150624517 L1.6633402993471522,4.163381415319271 L1.6227351264009897,4.209955467013137 L1.5782206424005174,4.255323104736182 L1.5299040866367002,4.299375033875394 L1.4779018579244039,4.342005129474985 L1.4223392341874534,4.383110691900699 L1.3633500706531425,4.42259269425223 L1.3010764773832655,4.460356020927699 L1.235668476918532,4.496309696765468 L1.1672836428611262,4.530367106211274 L1.0960867202660962,4.5624462019826835 L1.022249228756086,4.592469702728189 L0.9459490493155447,4.620365279204744 L0.8673699957598527,4.6460657285252545 L0.7867013719117364,4.669509136056213 L0.7041375155517828,4.690639024575478 L0.6198773302417029,4.7094044903308445 L0.5341238061482291,4.725760325671651 L0.4470835310220241,4.739667127957956 L0.3589661925096949,4.751091394484963 L0.2699840729978848,4.760005603193958 L0.18035153820641106,4.76638827897537 L0.090284520762469,4.770224045404186 L1.8531278922096863e-14,4.771503661783103 L-0.09028452076243194,4.770224045404186 L-0.180351538206374,4.76638827897537 L-0.2699840729978478,4.760005603193958 L-0.35896619250965794,4.751091394484963 L-0.4470835310219872,4.739667127957957 L-0.534123806148192,4.725760325671652 L-0.6198773302416659,4.709404490330845 L-0.704137515551746,4.6906390245754785 L-0.7867013719116996,4.669509136056214 L-0.867369995759819,4.646065728525255 L-0.945949049315511,4.620365279204745 L-1.0222492287560507,4.59246970272819 L-1.09608672026606,4.562446201982685 L-1.16728364286109,4.5303671062112745 L-1.235668476918496,4.496309696765469 L-1.3010764773832295,4.4603560209277004 L-1.3633500706531068,4.422592694252232 L-1.422339234187418,4.383110691900701 L-1.4779018579243683,4.342005129474987 L-1.529904086636665,4.299375033875396 L-1.5782206424004823,4.255323104736184 L-1.6227351264009549,4.209955467013139 L-1.663340299347119,4.163381415319271 L-1.6999383398207506,4.115713150624519 L-1.7324410799367413,4.067065509953776 L-1.7607702177472484,4.017555689734448 L-1.7848575058779448,3.9673029634599946 L-1.8046449159419278,3.9164283943496274 L-1.8200847783351808,3.8650545436964205 L-1.831139897076826,3.813305175606415 L-1.837783639417501,3.7613049588400482 L-1.8399999999999836,3.709179166474192 L-1.837783639417501,3.6570533741083358 L-1.831139897076826,3.605053157341969 L-1.820084778335181,3.553303789251963 L-1.804644915941928,3.501929938598756 L-1.7848575058779452,3.4510553694883894 L-1.7607702177472486,3.400802643213936 L-1.7324410799367427,3.3512928229946097 L-1.6999383398207524,3.302645182323867 L-1.663340299347121,3.254976917629114 L-1.6227351264009588,3.2084028659352475 L-1.5782206424004863,3.1630352282122027 L-1.5299040866366693,3.1189832990729904 L-1.477901857924373,3.0763532034733996 L-1.4223392341874228,3.035247641047686 L-1.3633500706531096,2.9957656386961533 L-1.3010764773832328,2.9580023120206844 L-1.2356684769184993,2.9220486361829154 L-1.167283642861091,2.8879912267371086 L-1.096086720266061,2.8559121309656987 L-1.022249228756052,2.8258886302201938 L-0.945949049315512,2.7979930537436384 L-0.8673699957598201,2.772292604423128 L-0.7867013719117038,2.74884919689217 L-0.7041375155517502,2.727719308372906 L-0.6198773302416702,2.7089538426175386 L-0.5341238061481964,2.6925980072767324 L-0.44708353102199155,2.678691204990427 L-0.3589661925096624,2.6672669384634204 L-0.2699840729978523,2.658352729754425 L-0.18035153820637848,2.651970053973013 L-0.09028452076243644,2.6481342875441976 L1.2392095968287712e-14,2.64685467116528 L0.09028452076246123,2.648134287544197 L0.18035153820640332,2.651970053973012 L0.26998407299787713,2.6583527297544247 L0.35896619250968725,2.6672669384634196 L0.44708353102201653,2.6786912049904257 L0.5341238061482215,2.6925980072767315 L0.6198773302416986,2.7089538426175372 L0.7041375155517786,2.727719308372905 L0.7867013719117323,2.748849196892169 L0.8673699957598516,2.7722926044231277 L0.9459490493155437,2.797993053743638 L1.0222492287560834,2.8258886302201933 L1.0960867202660927,2.8559121309656983 L1.1672836428611228,2.8879912267371086 L1.2356684769185289,2.9220486361829137 L1.301076477383239,2.9580023120206693 " />
			<path d="M1.9900000000000166,2.0761860046187395 L1.9900000000000166,3.586704679335033 " />
			<path d="M-1.9899999999999838,2.0761860046187395 L-1.9899999999999838,3.586704679335033 " />
			<path d="M-0.7834936490539837,1.020055062312176 L-0.7834936490539836,-7.721772966513974 " />
			<path d="M0.7834936490540165,1.0200550623121742 L0.7834936490540166,-7.721772966513974 " />
			<path d="M1.9900000000000164,3.586704679335033 L1.9860511595886894,3.664303069483589 L1.974182530174995,3.7417278647214056 L1.9543342230543386,3.8187886464478753 L1.9264209617499533,3.8952649907577177 L1.9033120867260103,3.9457420002865815 L1.8765651311901148,3.99575991996042 L1.846160088883251,4.04521864355061 L1.8120907008551228,4.094013608003905 L1.7743644554641524,4.142035793442427 L1.733002588377482,4.189171723163675 L1.6880400825709727,4.235303463640518 L1.6395256683292045,4.280308624521199 L1.584790406451904,4.326266661648381 L1.526301476229621,4.370721607440595 L1.4641731520791186,4.413544075007586 L1.3985324983878418,4.454611223528805 L1.3295193695139156,4.493806758253419 L1.2572864097861465,4.531020930500303 L1.1819990535040208,4.566150537658048 L1.1038355249377054,4.599098923184953 L1.0381179558333773,4.624283239896156 L0.9707073780133173,4.647914685832669 L0.831254545332112,4.690354723418653 L0.6863883363591375,4.7261216642522506 L0.5370466385639694,4.7549679162192575 L0.38419391742071163,4.776695666781919 L0.2288212164079963,4.79115688297893 L0.0719461570089812,4.798253311425433 L-0.08538706128864769,4.797936478313021 L-0.168415585342911,4.79477111297984 L-0.2511455647821188,4.7895385830234405 L-0.3334198187003381,4.78224894027043 L-0.4150840699333624,4.772916105517137 L-0.49598694505871216,4.761557868529619 L-0.5759799743956345,4.748195888043659 L-0.6549175920051034,4.732855691764766 L-0.7326571356898195,4.715566676368173 L-0.8090588469942102,4.6963621074988415 L-0.8839858712044296,4.6752791197714565 L-0.9573042573483586,4.652358716770432 L-1.0288829581956052,4.627645771049904 L-1.0985938302575036,4.601189024133739 L-1.166311633787115,4.573041086515525 L-1.2319140327792266,4.54325843765858 L-1.2952815949703547,4.511901425995944 L-1.389866015865979,4.459745556711335 L-1.4783303014373517,4.404147087126723 L-1.5603284929722996,4.345394433477615 L-1.635562452712279,4.283796282483458 L-1.684760443537835,4.238490530668784 L-1.7303490133309054,4.192030114237711 L-1.7722770729522392,4.1445406941309395 L-1.8105078175004767,4.096143397424034 L-1.8450187263121502,4.04695481732742 L-1.8758015629616829,3.9970870131863907 L-1.90286237526139,3.946647510481099 L-1.9262214952614782,3.8957393008265635 L-1.9542225721411934,3.819147691689701 L-1.9741331095808952,3.741968689376555 L-1.9860388388720325,3.664423894035343 L-1.9899999999999838,3.5867046793350386 " />

         </g>
     </g>
     
</svg>
