DBRep_DrawableShape

CASCADE Topology V3, (c) Open Cascade
Locations 0
Curve2ds 12
1 0 0 1 0 
1 6.2831853071795862 -10 -1 0 
1 6.2831853071795862 0 0 1 
1 4.1389114358025836e-13 0 0 1 
1 0 1.8500000000000001 1 0 
1 0 0 1 0 
1 6.2831853071795862 0 -1 0 
1 -4.1389114358025836e-13 0 -0 -1 
1 6.2831853071795862 0 -0 -1 
1 6.2831853071795862 -1.570796326795 0 1 
1 4.1389114358025836e-13 -1.570796326795 0 1 
1 0 1.570796326795 1 0 
Curves 26
2 0 0 0 0 0 1 1 0 -0 -0 1 0 1.99
2 0 0 0 0 0 1 1 0 -0 -0 1 0 0.78349364905399999
1 1.99 0 0 0 0 1 
2 0 0 1.8500000000000001 0 0 1 1 0 -0 -0 1 0 1.99
2 0 0 -10 0 0 1 1 0 -0 -0 1 0 0.78349364905399999
1 0.78349364905399999 0 -10 0 0 1 
2 1.8400000000000001 0 1.8500000000000001 0 -1 0 0 0 -1 1 0 0 0.14999999999999999
2 0 0 2 0 0 1 1 0 -0 -0 1 0 1.8400000000000001
1 0.86602540378399995 0 2 -0.50000000000018996 0.86602540378432902 0 
1 0.43301270189199997 -0.75 2 0.50000000000018996 0.86602540378432902 0 
1 -0.43301270189199997 -0.75 2 1 -7.6918507455339999e-16 0 
1 -0.86602540378399995 1.060575238725e-16 2 0.50000000000018996 -0.86602540378432902 0 
1 -0.43301270189199997 0.75 2 -0.50000000000018996 -0.86602540378432902 0 
1 0.43301270189199997 0.75 2 -1 1.2819751242560001e-16 0 
1 0.86602540378399995 0 2 0 0 -1 
1 0.86602540378399995 0 1 -0.50000000000018996 0.86602540378432902 0 
1 0.43301270189199997 0.75 2 0 0 -1 
1 0.43301270189199997 0.75 1 -1 1.2819751242560001e-16 0 
1 -0.43301270189199997 0.75 2 0 0 -1 
1 -0.43301270189199997 0.75 1 -0.50000000000018996 -0.86602540378432902 0 
1 -0.86602540378399995 1.060575238725e-16 2 0 0 -1 
1 -0.86602540378399995 1.060575238725e-16 1 0.50000000000018996 -0.86602540378432902 0 
1 -0.43301270189199997 -0.75 2 0 0 -1 
1 -0.43301270189199997 -0.75 1 1 -7.6918507455339999e-16 0 
1 0.43301270189199997 -0.75 2 0 0 -1 
1 0.43301270189199997 -0.75 1 0.50000000000018996 0.86602540378432902 0 
Polygon3D 0
PolygonOnTriangulations 0
Surfaces 13
1 0 0 0 0 0 1 1 0 -0 -0 1 0 
2 0 0 0 0 0 1 1 0 -0 -0 1 0 1.99
2 0 0 -10 -0 -0 -1 1 0 0 0 -1 0 0.78349364905399999
5 0 0 1.8500000000000001 0 0 1 1 0 -0 -0 1 0 1.8400000000000001 0.14999999999999999
1 -5.9308313334330002e-17 7.1089941073290003e-17 -10 0 0 1 1 0 -0 -0 1 0 
1 0 0 2 0 0 1 1 0 -0 -0 1 0 
1 0.86602540378399995 0 2 0.86602540378432902 0.50000000000018996 0 -0.50000000000018996 0.86602540378432902 0 0 -0 1 
1 0.43301270189199997 -0.75 2 0.86602540378432902 -0.50000000000018996 0 0.50000000000018996 0.86602540378432902 0 -0 0 1 
1 -0.43301270189199997 -0.75 2 -7.6918507455339999e-16 -1 -0 1 -7.6918507455339999e-16 0 -0 0 1 
1 -0.86602540378399995 1.060575238725e-16 2 -0.86602540378432902 -0.50000000000018996 -0 0.50000000000018996 -0.86602540378432902 0 -0 0 1 
1 -0.43301270189199997 0.75 2 -0.86602540378432902 0.50000000000018996 0 -0.50000000000018996 -0.86602540378432902 0 0 0 1 
1 0.43301270189199997 0.75 2 1.2819751242560001e-16 1 0 -1 1.2819751242560001e-16 0 0 -0 1 
1 -1.695017516637e-17 -2.0020845310399998e-17 1 0 0 1 1 0 -0 -0 1 0 
Triangulations 0

TShapes 73
Ve
1e-07
1.99 0 0
0 0

0101101
*
Ed
 1e-07 1 1 0
1  1 0 0 6.28318530717959
2  1 2 0 0 6.28318530717959
4 C0 1 0 2 0
0

0101100
+73 0 -73 0 *
Wi

0101100
-72 0 *
Ve
1e-07
0.783493649054 0 0
0 0

0101101
*
Ed
 1e-07 1 1 0
1  2 0 0 6.28318530717959
2  2 3 0 0 6.28318530717959
4 C0 1 0 3 0
0

0101100
+70 0 -70 0 *
Wi

0101100
+69 0 *
Fa
0  1e-07 1 0

0111000
-71 0 -68 0 *
Ve
1e-07
1.99 0 1.85
0 0

0101101
*
Ed
 1e-07 1 1 0
1  3 0 0 1.85
3  3 4CN 2 0 0 1.85
0

0101000
+73 0 -66 0 *
Ed
 1e-07 1 1 0
1  4 0 0 6.28318530717959
2  5 2 0 0 6.28318530717959
2  6 4 0 0 6.28318530717959
4 G1 2 0 4 0
0

0101100
+66 0 -66 0 *
Wi

0101100
+72 0 +65 0 -64 0 -65 0 *
Fa
0  1e-07 2 0

0111000
+63 0 *
Ve
1e-07
0.783493649054 0 -10
0 0

0101101
*
Ed
 1e-07 1 1 0
1  5 0 0 6.28318530717959
2  7 3 0 0 6.28318530717959
4 C0 3 0 5 0
0

0101100
+61 0 -61 0 *
Ed
 1e-07 1 1 0
1  6 0 0 10
3  8 9CN 3 0 0 10
0

0101000
+61 0 -70 0 *
Wi

0101100
+60 0 +59 0 -69 0 -59 0 *
Fa
0  1e-07 3 0

0111000
+58 0 *
Ve
1e-07
1.84 0 2
0 0

0101101
*
Ed
 1e-07 1 1 0
1  7 0 1.5707963267949 3.14159265358979
3  10 11CN 4 0 1.5707963267949 3.14159265358979
0

0101000
+66 0 -56 0 *
Ed
 1e-07 1 1 0
1  8 0 0 6.28318530717959
2  12 4 0 0 6.28318530717959
4 G1 4 0 6 0
0

0101100
+56 0 -56 0 *
Wi

0101100
+64 0 +55 0 -54 0 -55 0 *
Fa
0  1e-07 4 0

0111000
+53 0 *
Wi

0101100
+60 0 *
Fa
0  1e-07 5 0

0111000
+51 0 *
Wi

0101100
+54 0 *
Ve
1e-07
0.866025403784 0 2
0 0

0101101
*
Ve
1e-07
0.433012701892 0.75 2
0 0

0101101
*
Ed
 1e-07 1 1 0
1  9 0 0 0.866025403784329
4 C0 6 0 7 0
0

0101000
+48 0 -47 0 *
Ve
1e-07
0.433012701892 -0.75 2
0 0

0101101
*
Ed
 1e-07 1 1 0
1  10 0 0 0.866025403784329
4 C0 6 0 8 0
0

0101000
+45 0 -48 0 *
Ve
1e-07
-0.433012701892 -0.75 2
0 0

0101101
*
Ed
 1e-07 1 1 0
1  11 0 0 0.866025403784
4 C0 6 0 9 0
0

0101000
+43 0 -45 0 *
Ve
1e-07
-0.866025403784 1.060575238725e-16 2
0 0

0101101
*
Ed
 1e-07 1 1 0
1  12 0 0 0.866025403784329
4 C0 6 0 10 0
0

0101000
+41 0 -43 0 *
Ve
1e-07
-0.433012701892 0.75 2
0 0

0101101
*
Ed
 1e-07 1 1 0
1  13 0 0 0.866025403784329
4 C0 6 0 11 0
0

0101000
+39 0 -41 0 *
Ed
 1e-07 1 1 0
1  14 0 0 0.866025403784
4 C0 6 0 12 0
0

0101000
+47 0 -39 0 *
Wi

0101100
-46 0 -44 0 -42 0 -40 0 -38 0 -37 0 *
Fa
0  1e-07 6 0

0111000
+49 0 +36 0 *
Ve
1e-07
0.866025403784 0 1
0 0

0101101
*
Ed
 1e-07 1 1 0
1  15 0 0 1
4 C0 7 0 8 0
0

0101000
+48 0 -34 0 *
Ve
1e-07
0.433012701892 0.75 1
0 0

0101101
*
Ed
 1e-07 1 1 0
1  16 0 0 0.866025403784329
4 C0 7 0 13 0
0

0101000
+34 0 -32 0 *
Ed
 1e-07 1 1 0
1  17 0 0 1
4 C0 7 0 12 0
0

0101000
+47 0 -32 0 *
Wi

0101100
+33 0 +31 0 -30 0 -46 0 *
Fa
0  1e-07 7 0

0111000
+29 0 *
Ve
1e-07
-0.433012701892 0.75 1
0 0

0101101
*
Ed
 1e-07 1 1 0
1  18 0 0 0.866025403784
4 C0 12 0 13 0
0

0101000
+32 0 -27 0 *
Ed
 1e-07 1 1 0
1  19 0 0 1
4 C0 12 0 11 0
0

0101000
+39 0 -27 0 *
Wi

0101100
+30 0 +26 0 -25 0 -37 0 *
Fa
0  1e-07 12 0

0111000
+24 0 *
Ve
1e-07
-0.866025403784 1.060575238725e-16 1
0 0

0101101
*
Ed
 1e-07 1 1 0
1  20 0 0 0.866025403784329
4 C0 11 0 13 0
0

0101000
+27 0 -22 0 *
Ed
 1e-07 1 1 0
1  21 0 0 1
4 C0 11 0 10 0
0

0101000
+41 0 -22 0 *
Wi

0101100
+25 0 +21 0 -20 0 -38 0 *
Fa
0  1e-07 11 0

0111000
+19 0 *
Ve
1e-07
-0.433012701892 -0.75 1
0 0

0101101
*
Ed
 1e-07 1 1 0
1  22 0 0 0.866025403784329
4 C0 10 0 13 0
0

0101000
+22 0 -17 0 *
Ed
 1e-07 1 1 0
1  23 0 0 1
4 C0 10 0 9 0
0

0101000
+43 0 -17 0 *
Wi

0101100
+20 0 +16 0 -15 0 -40 0 *
Fa
0  1e-07 10 0

0111000
+14 0 *
Ve
1e-07
0.433012701892 -0.75 1
0 0

0101101
*
Ed
 1e-07 1 1 0
1  24 0 0 0.866025403784
4 C0 9 0 13 0
0

0101000
+17 0 -12 0 *
Ed
 1e-07 1 1 0
1  25 0 0 1
4 C0 9 0 8 0
0

0101000
+45 0 -12 0 *
Wi

0101100
+15 0 +11 0 -10 0 -42 0 *
Fa
0  1e-07 9 0

0111000
+9 0 *
Ed
 1e-07 1 1 0
1  26 0 0 0.866025403784329
4 C0 8 0 13 0
0

0101000
+12 0 -34 0 *
Wi

0101100
+10 0 +7 0 -33 0 -44 0 *
Fa
0  1e-07 8 0

0111000
+6 0 *
Wi

0101100
+31 0 +26 0 +21 0 +16 0 +11 0 +7 0 *
Fa
0  1e-07 13 0

0111000
+4 0 *
Sh

0101100
-67 0 +62 0 +57 0 +52 0 -50 0 +35 0 -28 0 -23 0 -18 0 -13 0 
-8 0 -5 0 +3 0 *
So

0100000
+2 0 *

+1 0 